<svg width="56" height="64" viewBox="0 0 56 64" fill="none" xmlns="http://www.w3.org/2000/svg">
<mask id="path-1-inside-1_11_68" fill="white">
<path fill-rule="evenodd" clip-rule="evenodd" d="M16 8H40C44.4183 8 48 11.5817 48 16V48C48 52.4183 44.4183 56 40 56H16C11.5817 56 8 52.4183 8 48V16C8 11.5817 11.5817 8 16 8ZM0 16C0 7.16344 7.16344 0 16 0H40C48.8366 0 56 7.16344 56 16V48C56 56.8366 48.8366 64 40 64H16C7.16344 64 0 56.8366 0 48V16ZM28 14L16 32L28 50L40 32L28 14Z"/>
</mask>
<path fill-rule="evenodd" clip-rule="evenodd" d="M16 8H40C44.4183 8 48 11.5817 48 16V48C48 52.4183 44.4183 56 40 56H16C11.5817 56 8 52.4183 8 48V16C8 11.5817 11.5817 8 16 8ZM0 16C0 7.16344 7.16344 0 16 0H40C48.8366 0 56 7.16344 56 16V48C56 56.8366 48.8366 64 40 64H16C7.16344 64 0 56.8366 0 48V16ZM28 14L16 32L28 50L40 32L28 14Z" fill="#16C5BA"/>
<path d="M16 32L14.6521 31.1014L14.053 32L14.6521 32.8987L16 32ZM28 14L29.348 13.1014L28 11.0795L26.6521 13.1014L28 14ZM28 50L26.652 50.8986L28 52.9205L29.3479 50.8986L28 50ZM40 32L41.3479 32.8986L41.947 32L41.3479 31.1013L40 32ZM40 6.38H16V9.62H40V6.38ZM49.62 16C49.62 10.687 45.313 6.38 40 6.38V9.62C43.5236 9.62 46.38 12.4764 46.38 16H49.62ZM49.62 48V16H46.38V48H49.62ZM40 57.62C45.313 57.62 49.62 53.313 49.62 48H46.38C46.38 51.5236 43.5236 54.38 40 54.38V57.62ZM16 57.62H40V54.38H16V57.62ZM6.38 48C6.38 53.313 10.687 57.62 16 57.62V54.38C12.4764 54.38 9.62 51.5236 9.62 48H6.38ZM6.38 16V48H9.62V16H6.38ZM16 6.38C10.687 6.38 6.38 10.687 6.38 16H9.62C9.62 12.4764 12.4764 9.62 16 9.62V6.38ZM16 -1.62C6.26874 -1.62 -1.62 6.26874 -1.62 16H1.62C1.62 8.05815 8.05815 1.62 16 1.62V-1.62ZM40 -1.62H16V1.62H40V-1.62ZM57.62 16C57.62 6.26874 49.7313 -1.62 40 -1.62V1.62C47.9419 1.62 54.38 8.05815 54.38 16H57.62ZM57.62 48V16H54.38V48H57.62ZM40 65.62C49.7313 65.62 57.62 57.7313 57.62 48H54.38C54.38 55.9419 47.9419 62.38 40 62.38V65.62ZM16 65.62H40V62.38H16V65.62ZM-1.62 48C-1.62 57.7313 6.26874 65.62 16 65.62V62.38C8.05814 62.38 1.62 55.9419 1.62 48H-1.62ZM-1.62 16V48H1.62V16H-1.62ZM17.3479 32.8987L29.348 14.8986L26.6521 13.1014L14.6521 31.1014L17.3479 32.8987ZM29.3479 49.1014L17.3479 31.1014L14.6521 32.8987L26.652 50.8986L29.3479 49.1014ZM38.6521 31.1013L26.652 49.1014L29.3479 50.8986L41.3479 32.8986L38.6521 31.1013ZM26.6521 14.8986L38.6521 32.8986L41.3479 31.1013L29.348 13.1014L26.6521 14.8986Z" fill="#E9FAFC" mask="url(#path-1-inside-1_11_68)"/>
</svg>
