<svg width="160" height="32" fill="none" xmlns="http://www.w3.org/2000/svg"><g clip-path="url(#a)"><path d="M38.317 19.053a2.617 2.617 0 0 0 2.617-2.617v-3.925a2.617 2.617 0 0 0-2.617-2.617H25.67v12.212h3.926v-3.053h8.722Zm-8.722-6.106h6.629a.872.872 0 0 1 .872.872v1.309a.872.872 0 0 1-.872.872h-5.975l-.654 1.526v-4.579ZM111.763 19.053H100.86V9.894h-3.926v9.595a2.617 2.617 0 0 0 2.617 2.617h10.947l1.265-3.053ZM127.595 19.053h-10.904V9.894h-3.925v9.595a2.626 2.626 0 0 0 .767 1.85 2.611 2.611 0 0 0 1.85.767h10.947l1.265-3.053ZM160 19.053h-10.903V9.894h-3.926v9.595a2.626 2.626 0 0 0 .767 1.85 2.611 2.611 0 0 0 1.85.767h10.947L160 19.053ZM51.368 9.894h-3.946a1.744 1.744 0 0 0-1.51.872l-6.548 11.34h4.361l.883-1.528h9.576l.881 1.528h4.361l-6.547-11.34a1.744 1.744 0 0 0-1.51-.872Zm1.047 7.63H46.37l2.518-4.36a.431.431 0 0 1 .377-.219h.26a.434.434 0 0 1 .378.218l2.512 4.362ZM88.623 9.894h-3.955a1.744 1.744 0 0 0-1.51.872l-6.548 11.34h4.362l.883-1.528h9.575l.873 1.528h4.361l-6.539-11.34a1.745 1.745 0 0 0-1.502-.872Zm1.047 7.63h-6.053l2.517-4.36a.431.431 0 0 1 .377-.219h.26a.434.434 0 0 1 .378.218l2.521 4.362ZM75.65 16.436v-3.925a2.617 2.617 0 0 0-2.616-2.617H60.386v12.212h3.925v-3.053h3.796l3.052 3.053h4.492L72.6 19.053h.434a2.617 2.617 0 0 0 2.617-2.617Zm-3.837-1.308a.872.872 0 0 1-.873.872h-5.975l-.654 1.526v-4.579h6.63a.872.872 0 0 1 .872.872v1.309ZM132.523 12.947v1.527h11.34v3.052h-11.34v1.527h11.34v3.053h-12.648a2.62 2.62 0 0 1-2.418-1.616 2.626 2.626 0 0 1-.199-1v-6.98a2.62 2.62 0 0 1 2.617-2.616h12.648v3.053h-11.34Z" fill="#fff"/><path d="M2.442 28.543a2.242 2.242 0 1 0 4.128 1.745l6.689-15.616a2.245 2.245 0 1 0-4.128-1.744L2.442 28.543ZM.197 17.328a2.242 2.242 0 1 0 4.126 1.744l6.696-15.615a2.242 2.242 0 1 0-4.126-1.752L.197 17.328Z" fill="#DEF141"/></g><defs><clipPath id="a"><path fill="#fff" transform="translate(0 .299)" d="M0 0h160v31.402H0z"/></clipPath></defs></svg>